<?xml version="1.0" encoding="utf-8"?>
<svg viewBox="0 0 64 64" id="home" xmlns="http://www.w3.org/2000/svg">
  <circle classname="fill-current text-primary" cx="32" cy="32" r="32" style="opacity: 0.9;"/>
  <path d="M 40.393 7.759 L 40.393 13.345 L 32.393 5.345 L 8.686 29.052 L 10.1 30.466 L 11.393 29.173 L 11.393 52.759 L 53.393 52.759 L 53.393 29.173 L 54.686 30.466 L 56.1 29.052 L 49.393 22.345 L 49.393 7.759 L 40.393 7.759 Z M 42.393 9.759 L 47.393 9.759 L 47.393 20.345 L 42.393 15.345 L 42.393 9.759 Z M 27.393 50.759 L 27.393 34.759 L 37.393 34.759 L 37.393 50.759 L 27.393 50.759 Z M 51.393 50.759 L 39.393 50.759 L 39.393 32.759 L 25.393 32.759 L 25.393 50.759 L 13.393 50.759 L 13.393 27.173 L 32.393 8.173 L 51.393 27.173 L 51.393 50.759 Z"/>
</svg>