<?xml version="1.0" encoding="utf-8"?>
<svg classname="w-16 h-16 mb-4" viewBox="0 64 64" xmlns="http://www.w3.org/2000/svg">
  <circle classname="fill-current text-primary" cx="32" cy="32" r="32" style="opacity: 1;"/>
  <path classname="text-white" d="M 17.571 52.823 L 39.181 52.823 L 39.191 52.823 C 40.624 52.823 42.24 52.309 43.67 51.164 C 44.787 52.181 46.176 52.777 47.698 52.777 C 51.349 52.777 54.63 49.328 55.331 44.752 C 56 40.304 54.14 33.799 49.79 33.144 C 48.36 32.929 46.909 33.409 45.549 34.483 C 44.389 32.363 42.508 30.322 40.191 29.849 L 40.191 19.713 C 40.191 15.888 38.255 12.415 35.131 10.383 C 35.743 9.77 36.081 8.95 36.081 8.075 C 36.081 6.28 34.617 4.82 32.818 4.82 L 23.944 4.82 C 22.134 4.82 20.681 6.271 20.681 8.075 C 20.681 8.959 21.036 9.78 21.635 10.381 C 18.508 12.412 16.571 15.887 16.571 19.713 L 16.571 51.823 C 16.571 52.375 17.018 52.823 17.571 52.823 Z M 34.307 50.823 L 18.571 50.823 L 18.571 21.635 L 38.191 21.635 L 38.191 29.842 C 33.656 30.755 30.821 37.463 30.821 42.183 C 30.821 45.328 32.007 48.716 34.307 50.823 Z M 45.541 42.183 C 45.541 46.246 43.172 50.755 39.262 50.815 C 39.236 50.815 39.21 50.82 39.184 50.82 C 35.676 50.82 32.823 46.944 32.823 42.181 C 32.823 38.142 35.459 31.748 39.187 31.743 C 39.193 31.743 39.198 31.745 39.203 31.745 C 42.967 31.78 45.541 38.165 45.541 42.183 Z M 49.493 35.121 C 52.558 35.583 53.848 41.17 53.353 44.452 C 52.801 48.058 50.371 50.777 47.698 50.777 C 46.774 50.777 45.857 50.436 45.075 49.751 C 46.527 47.905 47.544 45.174 47.544 42.181 C 47.544 40.202 47.046 37.972 46.421 36.355 C 47.456 35.42 48.515 34.977 49.493 35.121 Z M 23.944 6.82 L 32.818 6.82 C 33.514 6.82 34.081 7.383 34.081 8.075 C 34.081 8.803 33.487 9.329 32.907 9.329 C 32.802 9.329 23.351 9.333 23.949 9.333 C 23.106 9.276 22.681 8.699 22.681 8.075 C 22.681 7.383 23.233 6.82 23.944 6.82 Z M 24.054 11.333 C 24.156 11.333 33.292 11.337 32.716 11.337 C 36.024 12.788 38.154 16.018 38.185 19.635 L 18.577 19.635 C 18.607 16.015 20.741 12.782 24.054 11.333 Z"/>
  <path d="M 28.146 47.798 L 24.029 47.798 C 22.853 47.798 21.896 46.841 21.896 45.665 L 21.896 38.298 C 21.896 37.745 21.449 37.298 20.896 37.298 C 20.343 37.298 19.896 37.745 19.896 38.298 L 19.896 45.665 C 19.896 47.944 21.749 49.798 24.029 49.798 L 28.146 49.798 C 28.699 49.798 29.146 49.35 29.146 48.798 C 29.146 48.245 28.699 47.798 28.146 47.798 Z"/>
</svg>