<?xml version="1.0" encoding="utf-8"?>
<svg classname="w-16 h-16 mb-4" viewBox="0 0 64 64" xmlns="http://www.w3.org/2000/svg">
  <circle classname="fill-current text-primary" cx="32" cy="32" r="32"/>
  <path fill="#FFFFFF" d="M 19.844 22.357 L 17.738 22.357 C 17.157 22.357 16.683 22.909 16.683 23.6 C 16.683 24.284 17.155 24.842 17.738 24.842 L 19.846 24.842 C 20.429 24.842 20.9 24.287 20.9 23.6 C 20.899 22.909 20.427 22.357 19.844 22.357 M 31.436 22.357 C 26.781 22.357 23.006 26.807 23.006 32.297 C 23.006 37.786 26.781 42.237 31.436 42.237 C 36.089 42.237 39.863 37.783 39.863 32.297 C 39.863 26.805 36.089 22.357 31.436 22.357 M 34.835 36.438 C 34.663 36.909 34.426 37.296 34.122 37.602 C 33.821 37.915 33.465 38.149 33.061 38.313 C 32.654 38.475 32.335 38.571 31.865 38.593 L 31.865 39.745 L 31.014 39.745 L 31.014 38.593 C 30.504 38.582 30.159 38.48 29.734 38.307 C 29.309 38.123 28.947 37.865 28.643 37.534 C 28.343 37.204 28.107 36.794 27.945 36.308 C 27.778 35.82 27.7 35.267 27.71 34.638 L 29.324 34.638 C 29.314 35.38 29.449 35.967 29.734 36.393 C 30.016 36.822 30.363 37.048 31.014 37.069 L 31.014 32.982 C 30.629 32.857 30.363 32.708 29.982 32.535 C 29.601 32.36 29.256 32.137 28.951 31.86 C 28.647 31.584 28.397 31.236 28.209 30.821 C 28.019 30.403 27.926 29.886 27.926 29.27 C 27.926 28.728 28.014 28.252 28.188 27.843 C 28.364 27.43 28.6 27.085 28.899 26.811 C 29.194 26.533 29.538 26.324 29.923 26.177 C 30.31 26.03 30.597 25.957 31.019 25.957 L 31.019 24.848 L 31.869 24.848 L 31.869 25.957 C 32.292 25.957 32.575 26.024 32.952 26.161 C 33.328 26.295 33.655 26.499 33.932 26.768 C 34.211 27.04 34.432 27.384 34.598 27.797 C 34.761 28.215 34.849 28.698 34.849 29.25 L 33.232 29.25 C 33.215 28.676 33.087 28.237 32.859 27.933 C 32.626 27.631 32.375 27.478 31.867 27.478 L 31.867 31.043 C 32.291 31.177 32.586 31.334 32.989 31.514 C 33.395 31.695 33.753 31.927 34.065 32.205 C 34.377 32.49 34.624 32.838 34.818 33.254 C 35.003 33.673 35.098 34.181 35.098 34.789 C 35.101 35.422 35.014 35.969 34.835 36.438 M 52.509 17.384 L 10.362 17.384 C 9.198 17.384 8.253 18.497 8.253 19.87 L 8.253 44.718 C 8.253 46.091 9.198 47.202 10.362 47.202 L 52.509 47.202 C 53.673 47.202 54.616 46.087 54.616 44.718 L 54.616 19.871 C 54.616 18.497 53.672 17.384 52.509 17.384 M 11.415 19.871 C 12.001 19.871 12.47 20.425 12.47 21.116 C 12.469 21.798 12.001 22.357 11.415 22.357 C 10.834 22.357 10.362 21.798 10.362 21.112 C 10.362 20.425 10.834 19.871 11.415 19.871 M 11.415 44.721 C 10.834 44.721 10.362 44.163 10.362 43.477 C 10.362 42.79 10.834 42.236 11.415 42.236 C 12.001 42.236 12.47 42.788 12.47 43.477 C 12.469 44.163 12.001 44.721 11.415 44.721 M 51.455 44.721 C 50.873 44.721 50.399 44.163 50.399 43.477 C 50.399 42.79 50.87 42.236 51.455 42.236 C 52.037 42.236 52.509 42.788 52.509 43.477 C 52.509 44.163 52.037 44.721 51.455 44.721 M 52.509 39.977 C 52.177 39.838 51.827 39.749 51.455 39.749 C 49.709 39.749 48.292 41.42 48.292 43.481 C 48.292 43.916 48.367 44.333 48.487 44.723 L 14.383 44.723 C 14.498 44.333 14.577 43.92 14.577 43.481 C 14.577 41.42 13.161 39.749 11.415 39.749 C 11.044 39.749 10.696 39.838 10.362 39.977 L 10.362 24.611 C 10.692 24.75 11.042 24.841 11.415 24.841 C 13.161 24.841 14.577 23.169 14.577 21.112 C 14.577 20.674 14.498 20.259 14.383 19.87 L 48.488 19.87 C 48.371 20.259 48.294 20.672 48.294 21.112 C 48.294 23.169 49.712 24.841 51.459 24.841 C 51.827 24.841 52.179 24.75 52.513 24.611 L 52.513 39.977 L 52.509 39.977 Z M 51.455 22.357 C 50.873 22.357 50.399 21.8 50.399 21.112 C 50.399 20.425 50.87 19.87 51.455 19.87 C 52.037 19.87 52.509 20.423 52.509 21.112 C 52.509 21.798 52.037 22.357 51.455 22.357 M 29.54 29.132 C 29.54 29.404 29.586 29.632 29.68 29.824 C 29.776 30.014 29.895 30.18 30.041 30.315 C 30.189 30.449 30.356 30.561 30.551 30.645 C 30.742 30.724 30.818 30.801 31.018 30.852 L 31.018 27.478 C 30.508 27.478 30.235 27.605 29.954 27.856 C 29.679 28.112 29.54 28.536 29.54 29.132 M 45.135 39.749 L 43.025 39.749 C 42.445 39.749 41.971 40.307 41.971 40.991 C 41.971 41.679 42.443 42.241 43.025 42.241 L 45.135 42.241 C 45.718 42.241 46.189 41.682 46.189 40.991 C 46.186 40.307 45.718 39.749 45.135 39.749 M 32.943 33.726 C 32.778 33.577 32.591 33.461 32.385 33.37 C 32.176 33.281 32.086 33.199 31.869 33.136 L 31.869 37.073 C 32.377 37.027 32.675 36.855 32.999 36.54 C 33.325 36.232 33.488 35.734 33.488 35.062 C 33.488 34.747 33.439 34.483 33.336 34.268 C 33.24 34.056 33.106 33.872 32.943 33.726" style=""/>
</svg>